# xmcd
#
# Track frame offsets:
#      182
#      26102
#      40632
#      60180
#      69815
#      84485
#      99187
#      114270
#      129132
#      133965
#      148740
#      166230
#
# Disc length: 2465
# Revision: 1
# Processed by: cddbd v1.4b41PL1 Copyright (c) Steve Scherf et al.
# Submitted via: PowerPlay 1.50
#
DISCID=8f099f0c
DTITLE=Sonny Boy Williamson - Don't Send Me No Flowers
DYEAR=1900
DGENRE=
TTITLE0=Don't Send Me No Flowers
TTITLE1=I See A Man Downstairs
TTITLE2=She Was So Dumb
TTITLE3=The Goat
TTITLE4=Walking
TTITLE5=Little Girl, How Old Are You
TTITLE6=It's A Bloody Life
TTITLE7=Getting Out Of Town
TTITLE8=Slow Walk
TTITLE9=Pontiac Blues
TTITLE10=Lonesome Cabin
TTITLE11=Bye Bye Bird
EXTD=
EXTT0=
EXTT1=
EXTT2=
EXTT3=
EXTT4=
EXTT5=
EXTT6=
EXTT7=
EXTT8=
EXTT9=
EXTT10=
EXTT11=
PLAYORDER=
